<mxfile host="app.diagrams.net" modified="2021-01-27T14:45:42.968Z" agent="5.0 (Windows NT 10.0; Win64; x64) AppleWebKit/537.36 (KHTML, like Gecko) Chrome/87.0.4280.141 Safari/537.36" etag="w3xCPxOEBqSMPR8kmPcU" version="14.2.7" type="github">
  <diagram id="rjbdBGeqxxEq658o4Gka" name="Page-1">
    <mxGraphModel dx="1673" dy="971" grid="1" gridSize="10" guides="1" tooltips="1" connect="1" arrows="1" fold="1" page="1" pageScale="1" pageWidth="850" pageHeight="1100" math="0" shadow="0">
      <root>
        <mxCell id="0" />
        <mxCell id="1" parent="0" />
        <mxCell id="OCwRPXXEMNsCJncDEscA-1" value="" style="rounded=0;whiteSpace=wrap;html=1;fillColor=#ffe6cc;strokeColor=#d79b00;" vertex="1" parent="1">
          <mxGeometry x="40" y="100" width="695" height="570" as="geometry" />
        </mxCell>
        <mxCell id="OCwRPXXEMNsCJncDEscA-8" value="Main Program" style="text;html=1;align=center;verticalAlign=middle;resizable=0;points=[];autosize=1;fontFamily=Lucida Console;fontSize=20;fontStyle=1" vertex="1" parent="1">
          <mxGeometry x="307.5" y="675" width="160" height="30" as="geometry" />
        </mxCell>
        <mxCell id="OCwRPXXEMNsCJncDEscA-23" value="" style="group" vertex="1" connectable="0" parent="1">
          <mxGeometry x="860" y="343" width="115" height="85" as="geometry" />
        </mxCell>
        <mxCell id="OCwRPXXEMNsCJncDEscA-22" value="" style="rounded=0;whiteSpace=wrap;html=1;fontFamily=Lucida Console;fontSize=12;align=left;fillColor=#dae8fc;strokeColor=#6c8ebf;" vertex="1" parent="OCwRPXXEMNsCJncDEscA-23">
          <mxGeometry width="115" height="85" as="geometry" />
        </mxCell>
        <mxCell id="OCwRPXXEMNsCJncDEscA-7" value="External Display &lt;br style=&quot;font-size: 14px;&quot;&gt;Library" style="text;html=1;strokeColor=none;fillColor=none;align=center;verticalAlign=middle;whiteSpace=wrap;rounded=0;fontFamily=Lucida Console;fontStyle=1;fontSize=14;" vertex="1" parent="OCwRPXXEMNsCJncDEscA-23">
          <mxGeometry x="12.5" width="90" height="85" as="geometry" />
        </mxCell>
        <mxCell id="OCwRPXXEMNsCJncDEscA-26" value="Various calls to update display" style="text;html=1;strokeColor=none;fillColor=none;align=center;verticalAlign=middle;whiteSpace=wrap;rounded=0;fontFamily=Lucida Console;fontSize=14;fontStyle=1" vertex="1" parent="1">
          <mxGeometry x="746" y="312.5" width="100" height="70" as="geometry" />
        </mxCell>
        <mxCell id="OCwRPXXEMNsCJncDEscA-45" style="edgeStyle=orthogonalEdgeStyle;rounded=0;orthogonalLoop=1;jettySize=auto;html=1;exitX=0.5;exitY=1;exitDx=0;exitDy=0;entryX=0.5;entryY=0;entryDx=0;entryDy=0;startArrow=none;startFill=0;endArrow=classic;endFill=1;fontFamily=Lucida Console;fontSize=12;fontColor=#FFFFFF;" edge="1" parent="1" source="OCwRPXXEMNsCJncDEscA-35" target="OCwRPXXEMNsCJncDEscA-27">
          <mxGeometry relative="1" as="geometry" />
        </mxCell>
        <mxCell id="OCwRPXXEMNsCJncDEscA-35" value="" style="rounded=0;whiteSpace=wrap;html=1;fontFamily=Lucida Console;fontSize=12;align=left;" vertex="1" parent="1">
          <mxGeometry x="460" y="207.5" width="230" height="290" as="geometry" />
        </mxCell>
        <mxCell id="OCwRPXXEMNsCJncDEscA-27" value="" style="rounded=0;whiteSpace=wrap;html=1;fontFamily=Lucida Console;fontSize=14;" vertex="1" parent="1">
          <mxGeometry x="505" y="567.5" width="140" height="70" as="geometry" />
        </mxCell>
        <mxCell id="OCwRPXXEMNsCJncDEscA-28" value="MDD3A Lib&lt;br style=&quot;font-size: 14px;&quot;&gt;(motor driver)" style="text;html=1;strokeColor=none;fillColor=none;align=center;verticalAlign=middle;whiteSpace=wrap;rounded=0;fontFamily=Lucida Console;fontStyle=1;fontSize=14;" vertex="1" parent="1">
          <mxGeometry x="510" y="582.5" width="130" height="40" as="geometry" />
        </mxCell>
        <mxCell id="OCwRPXXEMNsCJncDEscA-36" value="PID Controllers" style="text;html=1;align=center;verticalAlign=middle;resizable=0;points=[];autosize=1;fontFamily=Lucida Console;fontSize=14;fontStyle=1" vertex="1" parent="1">
          <mxGeometry x="495" y="177.5" width="150" height="20" as="geometry" />
        </mxCell>
        <mxCell id="OCwRPXXEMNsCJncDEscA-43" style="edgeStyle=orthogonalEdgeStyle;rounded=0;orthogonalLoop=1;jettySize=auto;html=1;startArrow=none;startFill=0;endArrow=classic;endFill=1;fontFamily=Lucida Console;fontSize=12;fontColor=#FFFFFF;" edge="1" parent="1" source="OCwRPXXEMNsCJncDEscA-37" target="OCwRPXXEMNsCJncDEscA-40">
          <mxGeometry relative="1" as="geometry" />
        </mxCell>
        <mxCell id="OCwRPXXEMNsCJncDEscA-37" value="" style="rounded=0;whiteSpace=wrap;html=1;fontFamily=Lucida Console;fontSize=12;align=left;fillColor=#fa6800;strokeColor=#C73500;fontColor=#ffffff;" vertex="1" parent="1">
          <mxGeometry x="485" y="227.5" width="180" height="90" as="geometry" />
        </mxCell>
        <mxCell id="OCwRPXXEMNsCJncDEscA-39" value="&lt;font style=&quot;font-size: 21px&quot;&gt;Position PID&lt;/font&gt;" style="text;html=1;align=center;verticalAlign=middle;resizable=0;points=[];autosize=1;fontFamily=Lucida Console;fontSize=14;fontStyle=1;fontColor=#FFFFFF;" vertex="1" parent="1">
          <mxGeometry x="490" y="257.5" width="170" height="30" as="geometry" />
        </mxCell>
        <mxCell id="OCwRPXXEMNsCJncDEscA-40" value="" style="rounded=0;whiteSpace=wrap;html=1;fontFamily=Lucida Console;fontSize=12;align=left;fillColor=#1ba1e2;strokeColor=#006EAF;fontColor=#ffffff;" vertex="1" parent="1">
          <mxGeometry x="485" y="387.5" width="180" height="90" as="geometry" />
        </mxCell>
        <mxCell id="OCwRPXXEMNsCJncDEscA-44" value="&lt;font style=&quot;font-size: 21px&quot;&gt;Angle PID&lt;/font&gt;" style="text;html=1;align=center;verticalAlign=middle;resizable=0;points=[];autosize=1;fontFamily=Lucida Console;fontSize=14;fontStyle=1;fontColor=#FFFFFF;" vertex="1" parent="1">
          <mxGeometry x="510" y="417.5" width="130" height="30" as="geometry" />
        </mxCell>
        <mxCell id="OCwRPXXEMNsCJncDEscA-46" value="Motor&lt;br&gt;Speed" style="text;html=1;strokeColor=none;fillColor=none;align=center;verticalAlign=middle;whiteSpace=wrap;rounded=0;fontFamily=Lucida Console;fontSize=14;fontStyle=1" vertex="1" parent="1">
          <mxGeometry x="580" y="512.5" width="65" height="35" as="geometry" />
        </mxCell>
        <mxCell id="OCwRPXXEMNsCJncDEscA-47" value="Angle&lt;br&gt;Setpoint" style="text;html=1;strokeColor=none;fillColor=none;align=center;verticalAlign=middle;whiteSpace=wrap;rounded=0;fontFamily=Lucida Console;fontSize=14;fontStyle=1" vertex="1" parent="1">
          <mxGeometry x="580" y="335" width="65" height="35" as="geometry" />
        </mxCell>
        <mxCell id="OCwRPXXEMNsCJncDEscA-48" value="" style="endArrow=classic;html=1;fontFamily=Lucida Console;fontSize=12;fontColor=#FFFFFF;entryX=-0.016;entryY=0.457;entryDx=0;entryDy=0;entryPerimeter=0;exitX=1;exitY=0.5;exitDx=0;exitDy=0;" edge="1" parent="1" source="OCwRPXXEMNsCJncDEscA-32" target="OCwRPXXEMNsCJncDEscA-39">
          <mxGeometry width="50" height="50" relative="1" as="geometry">
            <mxPoint x="205" y="417.5" as="sourcePoint" />
            <mxPoint x="255" y="367.5" as="targetPoint" />
            <Array as="points">
              <mxPoint x="435" y="212.5" />
              <mxPoint x="435" y="271.5" />
            </Array>
          </mxGeometry>
        </mxCell>
        <mxCell id="OCwRPXXEMNsCJncDEscA-50" value="" style="endArrow=classic;html=1;fontFamily=Lucida Console;fontSize=12;fontColor=#FFFFFF;entryX=0;entryY=0.5;entryDx=0;entryDy=0;exitX=1;exitY=0.5;exitDx=0;exitDy=0;" edge="1" parent="1" source="OCwRPXXEMNsCJncDEscA-30" target="OCwRPXXEMNsCJncDEscA-40">
          <mxGeometry width="50" height="50" relative="1" as="geometry">
            <mxPoint x="414.9999999999998" y="467.5" as="sourcePoint" />
            <mxPoint x="487.28" y="526.2099999999999" as="targetPoint" />
            <Array as="points">
              <mxPoint x="435" y="467.5" />
              <mxPoint x="435" y="432.5" />
            </Array>
          </mxGeometry>
        </mxCell>
        <mxCell id="OCwRPXXEMNsCJncDEscA-54" value="" style="group" vertex="1" connectable="0" parent="1">
          <mxGeometry x="85" y="132.5" width="260" height="180" as="geometry" />
        </mxCell>
        <mxCell id="OCwRPXXEMNsCJncDEscA-32" value="" style="rounded=0;whiteSpace=wrap;html=1;fontFamily=Lucida Console;fontSize=12;align=left;" vertex="1" parent="OCwRPXXEMNsCJncDEscA-54">
          <mxGeometry width="260" height="160" as="geometry" />
        </mxCell>
        <mxCell id="OCwRPXXEMNsCJncDEscA-10" value="" style="rounded=0;whiteSpace=wrap;html=1;fontFamily=Lucida Console;fontSize=14;fillColor=#dae8fc;strokeColor=#6c8ebf;" vertex="1" parent="OCwRPXXEMNsCJncDEscA-54">
          <mxGeometry x="120" y="15" width="120" height="60" as="geometry" />
        </mxCell>
        <mxCell id="OCwRPXXEMNsCJncDEscA-11" value="" style="rounded=0;whiteSpace=wrap;html=1;fontFamily=Lucida Console;fontSize=14;fillColor=#dae8fc;strokeColor=#6c8ebf;" vertex="1" parent="OCwRPXXEMNsCJncDEscA-54">
          <mxGeometry x="120" y="85" width="120" height="60" as="geometry" />
        </mxCell>
        <mxCell id="OCwRPXXEMNsCJncDEscA-51" value="" style="group" vertex="1" connectable="0" parent="OCwRPXXEMNsCJncDEscA-54">
          <mxGeometry y="35" width="250" height="145" as="geometry" />
        </mxCell>
        <mxCell id="OCwRPXXEMNsCJncDEscA-2" value="Encoder Class" style="text;html=1;strokeColor=none;fillColor=none;align=center;verticalAlign=middle;whiteSpace=wrap;rounded=0;fontFamily=Lucida Console;fontStyle=1;fontSize=14;" vertex="1" parent="OCwRPXXEMNsCJncDEscA-51">
          <mxGeometry x="135" width="90" height="20" as="geometry" />
        </mxCell>
        <mxCell id="OCwRPXXEMNsCJncDEscA-3" value="Position Measurement" style="text;html=1;strokeColor=none;fillColor=none;align=center;verticalAlign=middle;whiteSpace=wrap;rounded=0;fontFamily=Lucida Console;fontStyle=1;fontSize=14;" vertex="1" parent="OCwRPXXEMNsCJncDEscA-51">
          <mxGeometry x="110" y="70" width="140" height="20" as="geometry" />
        </mxCell>
        <mxCell id="OCwRPXXEMNsCJncDEscA-19" style="edgeStyle=orthogonalEdgeStyle;rounded=0;orthogonalLoop=1;jettySize=auto;html=1;entryX=0;entryY=0.5;entryDx=0;entryDy=0;fontFamily=Lucida Console;fontSize=14;endArrow=none;endFill=0;startArrow=classic;startFill=1;" edge="1" parent="OCwRPXXEMNsCJncDEscA-51">
          <mxGeometry relative="1" as="geometry">
            <mxPoint x="120" y="70.0044827586207" as="sourcePoint" />
            <mxPoint x="120" y="4.969999999999999" as="targetPoint" />
            <Array as="points">
              <mxPoint x="100" y="69.97" />
              <mxPoint x="100" y="4.969999999999999" />
            </Array>
          </mxGeometry>
        </mxCell>
        <mxCell id="OCwRPXXEMNsCJncDEscA-20" value="Right &amp;amp; Left Encoder Ticks" style="text;html=1;strokeColor=none;fillColor=none;align=center;verticalAlign=middle;whiteSpace=wrap;rounded=0;fontFamily=Lucida Console;fontSize=14;" vertex="1" parent="OCwRPXXEMNsCJncDEscA-51">
          <mxGeometry y="10" width="100" height="70" as="geometry" />
        </mxCell>
        <mxCell id="OCwRPXXEMNsCJncDEscA-33" value="Position Data Group" style="text;html=1;align=center;verticalAlign=middle;resizable=0;points=[];autosize=1;fontFamily=Lucida Console;fontSize=14;fontStyle=1" vertex="1" parent="OCwRPXXEMNsCJncDEscA-51">
          <mxGeometry x="40" y="125" width="180" height="20" as="geometry" />
        </mxCell>
        <mxCell id="OCwRPXXEMNsCJncDEscA-57" value="" style="group" vertex="1" connectable="0" parent="1">
          <mxGeometry x="85" y="387.5" width="260" height="180" as="geometry" />
        </mxCell>
        <mxCell id="OCwRPXXEMNsCJncDEscA-30" value="" style="rounded=0;whiteSpace=wrap;html=1;fontFamily=Lucida Console;fontSize=12;align=left;" vertex="1" parent="OCwRPXXEMNsCJncDEscA-57">
          <mxGeometry width="260" height="160" as="geometry" />
        </mxCell>
        <mxCell id="OCwRPXXEMNsCJncDEscA-12" value="" style="rounded=0;whiteSpace=wrap;html=1;fontFamily=Lucida Console;fontSize=14;fillColor=#dae8fc;strokeColor=#6c8ebf;" vertex="1" parent="OCwRPXXEMNsCJncDEscA-57">
          <mxGeometry x="120" y="85" width="120" height="60" as="geometry" />
        </mxCell>
        <mxCell id="OCwRPXXEMNsCJncDEscA-6" value="Angle Measurement" style="text;html=1;strokeColor=none;fillColor=none;align=center;verticalAlign=middle;whiteSpace=wrap;rounded=0;fontFamily=Lucida Console;fontStyle=1;fontSize=14;" vertex="1" parent="OCwRPXXEMNsCJncDEscA-57">
          <mxGeometry x="130" y="105" width="100" height="20" as="geometry" />
        </mxCell>
        <mxCell id="OCwRPXXEMNsCJncDEscA-13" value="" style="rounded=0;whiteSpace=wrap;html=1;fontFamily=Lucida Console;fontSize=14;fillColor=#dae8fc;strokeColor=#6c8ebf;" vertex="1" parent="OCwRPXXEMNsCJncDEscA-57">
          <mxGeometry x="120" y="20" width="120" height="60" as="geometry" />
        </mxCell>
        <mxCell id="OCwRPXXEMNsCJncDEscA-17" style="edgeStyle=orthogonalEdgeStyle;rounded=0;orthogonalLoop=1;jettySize=auto;html=1;entryX=0;entryY=0.5;entryDx=0;entryDy=0;fontFamily=Lucida Console;fontSize=14;endArrow=none;endFill=0;startArrow=classic;startFill=1;" edge="1" parent="OCwRPXXEMNsCJncDEscA-57" source="OCwRPXXEMNsCJncDEscA-12" target="OCwRPXXEMNsCJncDEscA-13">
          <mxGeometry relative="1" as="geometry">
            <Array as="points">
              <mxPoint x="100" y="115" />
              <mxPoint x="100" y="50" />
            </Array>
          </mxGeometry>
        </mxCell>
        <mxCell id="OCwRPXXEMNsCJncDEscA-4" value="IMU" style="text;html=1;strokeColor=none;fillColor=none;align=center;verticalAlign=middle;whiteSpace=wrap;rounded=0;fontFamily=Lucida Console;fontStyle=1;fontSize=14;" vertex="1" parent="OCwRPXXEMNsCJncDEscA-57">
          <mxGeometry x="145" y="40" width="70" height="20" as="geometry" />
        </mxCell>
        <mxCell id="OCwRPXXEMNsCJncDEscA-18" value="X,Y DPS&lt;br&gt;X,Y Accel" style="text;html=1;strokeColor=none;fillColor=none;align=center;verticalAlign=middle;whiteSpace=wrap;rounded=0;fontFamily=Lucida Console;fontSize=14;" vertex="1" parent="OCwRPXXEMNsCJncDEscA-57">
          <mxGeometry y="65" width="100" height="30" as="geometry" />
        </mxCell>
        <mxCell id="OCwRPXXEMNsCJncDEscA-34" value="Angle Data Group" style="text;html=1;align=center;verticalAlign=middle;resizable=0;points=[];autosize=1;fontFamily=Lucida Console;fontSize=14;fontStyle=1" vertex="1" parent="OCwRPXXEMNsCJncDEscA-57">
          <mxGeometry x="45" y="160" width="150" height="20" as="geometry" />
        </mxCell>
        <mxCell id="OCwRPXXEMNsCJncDEscA-58" value="Current Angle" style="text;html=1;strokeColor=none;fillColor=none;align=center;verticalAlign=middle;whiteSpace=wrap;rounded=0;fontFamily=Lucida Console;fontSize=14;fontStyle=1" vertex="1" parent="1">
          <mxGeometry x="355" y="477.5" width="65" height="35" as="geometry" />
        </mxCell>
        <mxCell id="OCwRPXXEMNsCJncDEscA-59" value="Current Position" style="text;html=1;strokeColor=none;fillColor=none;align=center;verticalAlign=middle;whiteSpace=wrap;rounded=0;fontFamily=Lucida Console;fontSize=14;fontStyle=1" vertex="1" parent="1">
          <mxGeometry x="355" y="222.5" width="65" height="35" as="geometry" />
        </mxCell>
        <mxCell id="OCwRPXXEMNsCJncDEscA-60" value="" style="endArrow=classic;html=1;fontFamily=Lucida Console;fontSize=12;fontColor=#FFFFFF;entryX=0;entryY=0.5;entryDx=0;entryDy=0;exitX=1;exitY=0.5;exitDx=0;exitDy=0;" edge="1" parent="1" source="OCwRPXXEMNsCJncDEscA-1" target="OCwRPXXEMNsCJncDEscA-22">
          <mxGeometry width="50" height="50" relative="1" as="geometry">
            <mxPoint x="550" y="530" as="sourcePoint" />
            <mxPoint x="600" y="480" as="targetPoint" />
          </mxGeometry>
        </mxCell>
      </root>
    </mxGraphModel>
  </diagram>
</mxfile>
